<svg width="131" height="40" viewBox="0 0 131 40" fill="none" xmlns="http://www.w3.org/2000/svg">
<rect width="131" height="40" rx="5" fill="black"/>
<path fill-rule="evenodd" clip-rule="evenodd" d="M26.3021 19.7785C26.2768 16.8989 28.606 15.498 28.7125 15.4328C27.3934 13.4645 25.3488 13.1956 24.6303 13.1741C22.9131 12.9892 21.2474 14.2257 20.3726 14.2257C19.4804 14.2257 18.1333 13.192 16.6815 13.2224C14.8132 13.2519 13.0655 14.3588 12.1069 16.0779C10.1286 19.5829 11.604 24.7336 13.4994 27.5668C14.4475 28.9543 15.5553 30.5036 17.0054 30.4482C18.424 30.3892 18.954 29.5234 20.6659 29.5234C22.3622 29.5234 22.8598 30.4482 24.3387 30.4142C25.8613 30.3892 26.8198 29.0204 27.7347 27.6195C28.8304 26.03 29.2704 24.4638 29.2878 24.3834C29.252 24.3709 26.3309 23.2299 26.3021 19.7785Z" fill="white"/>
<path fill-rule="evenodd" clip-rule="evenodd" d="M23.5087 11.3103C24.2717 10.3338 24.7938 9.0052 24.6489 7.65698C23.5445 7.70702 22.1634 8.43875 21.3681 9.39386C20.6645 10.2355 20.0359 11.615 20.1983 12.9123C21.4388 13.007 22.7125 12.2717 23.5087 11.3103Z" fill="white"/>
<path fill-rule="evenodd" clip-rule="evenodd" d="M43.4368 25.2919L42.4546 22.1872C42.3508 21.87 42.1561 21.1231 41.8689 19.9473H41.8339C41.7196 20.453 41.5354 21.1999 41.2822 22.1872L40.3175 25.2919H43.4368ZM46.8328 30.2497H44.8502L43.7642 26.7572H39.9892L38.9547 30.2497H37.0245L40.7645 18.3596H43.0745L46.8328 30.2497Z" fill="white"/>
<path fill-rule="evenodd" clip-rule="evenodd" d="M54.5549 25.927C54.5549 25.0925 54.3716 24.4045 54.0032 23.8631C53.6007 23.2984 53.0603 23.0161 52.3828 23.0161C51.9236 23.0161 51.5063 23.1734 51.1336 23.4834C50.7599 23.7961 50.5155 24.2044 50.4011 24.7101C50.3435 24.946 50.3147 25.139 50.3147 25.2908V26.7204C50.3147 27.344 50.5015 27.8702 50.8751 28.3C51.2488 28.7297 51.7342 28.9442 52.3313 28.9442C53.0324 28.9442 53.578 28.6672 53.9682 28.1151C54.3593 27.562 54.5549 26.8329 54.5549 25.927ZM56.4511 25.8574C56.4511 27.3155 56.0661 28.468 55.2961 29.3141C54.6064 30.0673 53.75 30.4435 52.7277 30.4435C51.6242 30.4435 50.8315 30.0378 50.3487 29.2266H50.3138V33.743H48.4525V24.4984C48.4525 23.5817 48.4289 22.6409 48.3835 21.676H50.0204L50.1243 23.035H50.1593C50.78 22.0111 51.722 21.5 52.9861 21.5C53.9743 21.5 54.7993 21.8994 55.4593 22.699C56.1211 23.4995 56.4511 24.552 56.4511 25.8574Z" fill="white"/>
<path fill-rule="evenodd" clip-rule="evenodd" d="M64.1904 25.927C64.1904 25.0925 64.0062 24.4045 63.6369 23.8631C63.2345 23.2984 62.6967 23.0161 62.0184 23.0161C61.5574 23.0161 61.1419 23.1734 60.7682 23.4834C60.3937 23.7961 60.151 24.2044 60.0358 24.7101C59.9799 24.946 59.9502 25.139 59.9502 25.2908V26.7204C59.9502 27.344 60.1361 27.8702 60.5081 28.3C60.8826 28.7289 61.368 28.9442 61.9669 28.9442C62.6679 28.9442 63.2135 28.6672 63.6038 28.1151C63.994 27.562 64.1904 26.8329 64.1904 25.927ZM66.0866 25.8574C66.0866 27.3155 65.7007 28.468 64.9307 29.3141C64.2419 30.0673 63.3855 30.4435 62.3623 30.4435C61.2597 30.4435 60.4661 30.0378 59.9851 29.2266H59.9502V33.743H58.0889V24.4984C58.0889 23.5817 58.0654 22.6409 58.02 21.676H59.6569L59.7608 23.035H59.7957C60.4155 22.0111 61.3575 21.5 62.6225 21.5C63.6099 21.5 64.434 21.8994 65.0966 22.699C65.7557 23.4995 66.0866 24.552 66.0866 25.8574Z" fill="white"/>
<path fill-rule="evenodd" clip-rule="evenodd" d="M76.8595 26.9157C76.8595 27.9271 76.5164 28.75 75.8276 29.3852C75.0707 30.0794 74.0169 30.4261 72.6629 30.4261C71.4127 30.4261 70.4105 30.1786 69.6519 29.6854L70.0831 28.0969C70.9003 28.6035 71.7969 28.8572 72.7738 28.8572C73.4748 28.8572 74.0204 28.6937 74.4124 28.3712C74.8026 28.0477 74.9973 27.6126 74.9973 27.0721C74.9973 26.5896 74.8367 26.1831 74.5137 25.8534C74.1941 25.5228 73.659 25.2173 72.9117 24.9332C70.8767 24.1567 69.8614 23.0203 69.8614 21.5246C69.8614 20.5472 70.2176 19.7458 70.9308 19.1212C71.6406 18.4976 72.5895 18.1858 73.7751 18.1858C74.8323 18.1858 75.7106 18.3734 76.4116 18.7496L75.9463 20.3033C75.2915 19.9379 74.5503 19.7556 73.7227 19.7556C73.068 19.7556 72.5564 19.9209 72.1897 20.2506C71.8798 20.5445 71.7244 20.9028 71.7244 21.3263C71.7244 21.7971 71.9016 22.1849 72.2578 22.4913C72.5677 22.7728 73.1308 23.0783 73.948 23.408C74.9476 23.8199 75.6818 24.3015 76.1541 24.8536C76.6237 25.4049 76.8595 26.0929 76.8595 26.9157Z" fill="white"/>
<path fill-rule="evenodd" clip-rule="evenodd" d="M83.0132 23.1053H80.9616V27.2679C80.9616 28.3267 81.323 28.8565 82.0485 28.8565C82.3802 28.8565 82.6561 28.8261 82.8743 28.7671L82.9259 30.2136C82.5592 30.3539 82.0764 30.4245 81.4784 30.4245C80.7433 30.4245 80.1689 30.1958 79.7551 29.7365C79.3413 29.2773 79.1335 28.5071 79.1335 27.4252V23.1035H77.9113V21.674H79.1335V20.1042L80.9616 19.5396V21.674H83.0132V23.1053Z" fill="white"/>
<path fill-rule="evenodd" clip-rule="evenodd" d="M90.3383 25.9541C90.3383 25.1625 90.1741 24.4844 89.8398 23.9197C89.4487 23.2353 88.8917 22.894 88.1688 22.894C87.4198 22.894 86.8523 23.2362 86.4621 23.9197C86.1277 24.4853 85.9619 25.175 85.9619 25.9899C85.9619 26.7806 86.1277 27.4587 86.4621 28.0225C86.8646 28.7077 87.4259 29.049 88.1514 29.049C88.8629 29.049 89.4199 28.6997 89.8223 28.0055C90.1663 27.4283 90.3383 26.7439 90.3383 25.9541ZM92.2703 25.8925C92.2703 27.2095 91.901 28.2924 91.1659 29.1376C90.395 30.0096 89.3727 30.4429 88.0973 30.4429C86.8672 30.4429 85.8885 30.0266 85.1587 29.1921C84.4289 28.3567 84.0639 27.3042 84.0639 26.0346C84.0639 24.706 84.4393 23.6178 85.1927 22.7708C85.9453 21.9238 86.9597 21.5012 88.2352 21.5012C89.4635 21.5012 90.4535 21.9176 91.1991 22.7538C91.9141 23.5642 92.2703 24.6104 92.2703 25.8925Z" fill="white"/>
<path fill-rule="evenodd" clip-rule="evenodd" d="M98.3199 23.3515C98.1357 23.3166 97.9384 23.2979 97.7333 23.2979C97.0785 23.2979 96.5721 23.5516 96.216 24.0582C95.906 24.5049 95.7506 25.0696 95.7506 25.7513V30.2498H93.8902L93.9077 24.3754C93.9077 23.3881 93.8841 22.4884 93.8379 21.6771H95.459L95.5271 23.3175H95.5787C95.7751 22.7538 96.0841 22.2999 96.5093 21.9586C96.924 21.653 97.3718 21.5002 97.8546 21.5002C98.0266 21.5002 98.182 21.5119 98.3199 21.5351V23.3515Z" fill="white"/>
<path fill-rule="evenodd" clip-rule="evenodd" d="M104.869 25.0633C104.881 24.4987 104.76 24.0108 104.508 23.5981C104.186 23.0691 103.691 22.8047 103.025 22.8047C102.416 22.8047 101.921 23.0629 101.543 23.5811C101.233 23.993 101.049 24.4862 100.992 25.0624H104.869V25.0633ZM106.644 25.5574C106.644 25.8987 106.622 26.1864 106.576 26.4214H100.992C101.014 27.2683 101.284 27.9152 101.802 28.3619C102.273 28.7622 102.881 28.9623 103.629 28.9623C104.455 28.9623 105.21 28.8274 105.888 28.5567L106.18 29.879C105.387 30.2328 104.451 30.4079 103.371 30.4079C102.072 30.4079 101.052 30.0175 100.31 29.2357C99.57 28.454 99.1989 27.4042 99.1989 26.0872C99.1989 24.7944 99.5438 23.7178 100.234 22.8592C100.957 21.9425 101.934 21.4841 103.163 21.4841C104.371 21.4841 105.285 21.9425 105.905 22.8592C106.397 23.5873 106.644 24.487 106.644 25.5574Z" fill="white"/>
<path fill-rule="evenodd" clip-rule="evenodd" d="M41.8565 11.0709C41.8565 10.3892 41.6802 9.86648 41.3275 9.50195C40.9748 9.13832 40.4597 8.95605 39.7814 8.95605C39.4933 8.95605 39.248 8.97571 39.0446 9.01681V13.3849C39.1572 13.4028 39.3632 13.4108 39.6627 13.4108C40.3628 13.4108 40.9032 13.2116 41.2838 12.8131C41.6645 12.4146 41.8565 11.8339 41.8565 11.0709ZM42.8212 11.045C42.8212 12.0966 42.513 12.8882 41.8976 13.4198C41.3275 13.9103 40.5173 14.156 39.468 14.156C38.9477 14.156 38.5024 14.1328 38.1296 14.0863V8.3405C38.6159 8.26009 39.1397 8.21899 39.7054 8.21899C40.705 8.21899 41.4584 8.44146 41.9665 8.8864C42.5357 9.38942 42.8212 10.1086 42.8212 11.045Z" fill="white"/>
<path fill-rule="evenodd" clip-rule="evenodd" d="M46.9872 11.9937C46.9872 11.605 46.9052 11.2718 46.7419 10.9939C46.5499 10.658 46.2766 10.49 45.9213 10.49C45.5537 10.49 45.2744 10.658 45.0823 10.9939C44.9182 11.2718 44.837 11.6104 44.837 12.0106C44.837 12.3993 44.9191 12.7326 45.0823 13.0104C45.2805 13.3464 45.5564 13.5143 45.9126 13.5143C46.2618 13.5143 46.5359 13.3437 46.7332 13.0015C46.9026 12.7183 46.9872 12.3823 46.9872 11.9937ZM47.9362 11.9632C47.9362 12.6109 47.7555 13.1417 47.3941 13.558C47.0152 13.986 46.5132 14.1995 45.8864 14.1995C45.2822 14.1995 44.8012 13.9949 44.4424 13.5839C44.0845 13.1738 43.9055 12.6565 43.9055 12.0329C43.9055 11.3807 44.0897 10.8455 44.4599 10.43C44.83 10.0146 45.3276 9.8064 45.9545 9.8064C46.5586 9.8064 47.044 10.011 47.4115 10.4211C47.7607 10.8196 47.9362 11.3342 47.9362 11.9632Z" fill="white"/>
<path fill-rule="evenodd" clip-rule="evenodd" d="M54.7949 9.89233L53.5072 14.1041H52.6691L52.1357 12.2752C52.0004 11.8186 51.8904 11.3647 51.8048 10.9144H51.7882C51.7088 11.3773 51.5988 11.8302 51.4573 12.2752L50.8908 14.1041H50.0431L48.8322 9.89233H49.7724L50.2377 11.8946C50.3504 12.3681 50.4429 12.8193 50.5171 13.2464H50.5337C50.6018 12.8943 50.7144 12.4458 50.8733 11.9035L51.4573 9.89323H52.2029L52.7625 11.8606C52.8978 12.3404 53.0078 12.8023 53.0925 13.2473H53.1178C53.1798 12.8139 53.2732 12.352 53.3972 11.8606L53.8965 9.89323H54.7949V9.89233Z" fill="white"/>
<path fill-rule="evenodd" clip-rule="evenodd" d="M59.5381 14.1039H58.6231V11.6916C58.6231 10.9482 58.3473 10.5765 57.7938 10.5765C57.5223 10.5765 57.3031 10.6784 57.1329 10.883C56.9644 11.0876 56.8789 11.3288 56.8789 11.6049V14.103H55.9639V11.0956C55.9639 10.7258 55.9526 10.3246 55.9308 9.89038H56.7348L56.7776 10.5489H56.8029C56.9094 10.3443 57.0683 10.1754 57.2769 10.0405C57.5249 9.88323 57.8025 9.80371 58.1063 9.80371C58.4904 9.80371 58.81 9.93058 59.064 10.1852C59.3792 10.497 59.5381 10.9625 59.5381 11.5808V14.1039Z" fill="white"/>
<path fill-rule="evenodd" clip-rule="evenodd" d="M61.1469 14.104H62.0609V7.95972H61.1469V14.104Z" fill="white"/>
<path fill-rule="evenodd" clip-rule="evenodd" d="M66.4975 11.9937C66.4975 11.605 66.4154 11.2718 66.2522 10.9939C66.061 10.658 65.7877 10.49 65.4324 10.49C65.064 10.49 64.7846 10.658 64.5934 10.9939C64.4293 11.2718 64.3481 11.6104 64.3481 12.0106C64.3481 12.3993 64.4302 12.7326 64.5934 13.0104C64.7916 13.3464 65.0675 13.5143 65.4245 13.5143C65.7729 13.5143 66.0461 13.3437 66.2434 13.0015C66.4137 12.7183 66.4975 12.3823 66.4975 11.9937ZM67.4473 11.9632C67.4473 12.6109 67.2666 13.1417 66.9052 13.558C66.5263 13.986 66.0234 14.1995 65.3975 14.1995C64.7925 14.1995 64.3114 13.9949 63.9535 13.5839C63.5956 13.1738 63.4166 12.6565 63.4166 12.0329C63.4166 11.3807 63.6008 10.8455 63.971 10.43C64.3411 10.0146 64.8387 9.8064 65.4647 9.8064C66.0697 9.8064 66.5542 10.011 66.9226 10.4211C67.2718 10.8196 67.4473 11.3342 67.4473 11.9632Z" fill="white"/>
<path fill-rule="evenodd" clip-rule="evenodd" d="M70.9256 12.6567V12.0071C69.9164 11.9893 69.4118 12.2725 69.4118 12.8559C69.4118 13.0757 69.4695 13.2401 69.5873 13.35C69.7052 13.4599 69.8545 13.5144 70.0343 13.5144C70.2351 13.5144 70.4228 13.4492 70.5939 13.3196C70.765 13.1892 70.8715 13.0239 70.9099 12.8211C70.9204 12.7755 70.9256 12.7201 70.9256 12.6567ZM71.8755 14.1042H71.0531L70.985 13.619H70.9606C70.6795 14.0059 70.2787 14.1998 69.7584 14.1998C69.3699 14.1998 69.0548 14.072 68.8191 13.8182C68.6043 13.5877 68.4969 13.3009 68.4969 12.9605C68.4969 12.4459 68.7064 12.0537 69.1272 11.7821C69.5489 11.5105 70.1408 11.3773 70.9029 11.3836V11.305C70.9029 10.7501 70.6175 10.4732 70.0483 10.4732C69.6423 10.4732 69.2844 10.5777 68.9753 10.785L68.7894 10.1703C69.1718 9.92815 69.6441 9.80664 70.201 9.80664C71.2757 9.80664 71.8161 10.3874 71.8161 11.5489V13.0999C71.8161 13.5207 71.8362 13.8558 71.8755 14.1042Z" fill="white"/>
<path fill-rule="evenodd" clip-rule="evenodd" d="M76.1262 12.3277V11.6255C76.1262 11.504 76.1175 11.4057 76.1009 11.3307C76.0494 11.1055 75.9385 10.9161 75.77 10.7633C75.5989 10.6105 75.3946 10.5337 75.158 10.5337C74.8167 10.5337 74.5487 10.6722 74.3531 10.95C74.1584 11.2279 74.0598 11.5826 74.0598 12.0159C74.0598 12.4323 74.1532 12.77 74.3409 13.03C74.5391 13.307 74.8053 13.4455 75.1406 13.4455C75.4409 13.4455 75.681 13.3302 75.8634 13.0988C76.0389 12.8853 76.1262 12.6279 76.1262 12.3277ZM77.0743 14.1038H76.2624L76.2187 13.4274H76.1943C75.935 13.942 75.4924 14.1994 74.8717 14.1994C74.3767 14.1994 73.9629 14.0001 73.6355 13.6016C73.3081 13.2032 73.1457 12.6858 73.1457 12.0506C73.1457 11.3689 73.3229 10.8167 73.6791 10.395C74.024 10.0019 74.4465 9.80535 74.9485 9.80535C75.502 9.80535 75.8887 9.99565 76.1079 10.3772H76.1262V7.95947H77.042V12.9691C77.042 13.3792 77.0525 13.7571 77.0743 14.1038Z" fill="white"/>
<path fill-rule="evenodd" clip-rule="evenodd" d="M83.9509 11.9937C83.9509 11.605 83.8689 11.2718 83.7056 10.9939C83.5127 10.658 83.2403 10.49 82.8841 10.49C82.5166 10.49 82.2381 10.658 82.0443 10.9939C81.881 11.2718 81.7998 11.6104 81.7998 12.0106C81.7998 12.3993 81.8819 12.7326 82.0443 13.0104C82.2433 13.3464 82.5192 13.5143 82.8754 13.5143C83.2246 13.5143 83.4987 13.3437 83.6969 13.0015C83.8654 12.7183 83.9509 12.3823 83.9509 11.9937ZM84.8991 11.9632C84.8991 12.6109 84.7183 13.1417 84.3569 13.558C83.978 13.986 83.4769 14.1995 82.8492 14.1995C82.246 14.1995 81.7649 13.9949 81.4053 13.5839C81.0473 13.1738 80.8683 12.6565 80.8683 12.0329C80.8683 11.3807 81.0526 10.8455 81.4227 10.43C81.7929 10.0146 82.2905 9.8064 82.9173 9.8064C83.5214 9.8064 84.0068 10.011 84.3744 10.4211C84.7236 10.8196 84.8991 11.3342 84.8991 11.9632Z" fill="white"/>
<path fill-rule="evenodd" clip-rule="evenodd" d="M89.8182 14.1039H88.9042V11.6916C88.9042 10.9482 88.6283 10.5765 88.074 10.5765C87.8025 10.5765 87.5833 10.6784 87.414 10.883C87.2446 11.0876 87.1599 11.3288 87.1599 11.6049V14.103H86.2441V11.0956C86.2441 10.7258 86.2345 10.3246 86.2118 9.89038H87.015L87.0578 10.5489H87.0831C87.1905 10.3443 87.3494 10.1754 87.5571 10.0405C87.8059 9.88323 88.0827 9.80371 88.3874 9.80371C88.7706 9.80371 89.0902 9.93058 89.3442 10.1852C89.6611 10.497 89.8182 10.9625 89.8182 11.5808V14.1039Z" fill="white"/>
<path fill-rule="evenodd" clip-rule="evenodd" d="M95.9753 10.5935H94.9688V12.6395C94.9688 13.1595 95.1477 13.4195 95.5013 13.4195C95.6663 13.4195 95.8025 13.4052 95.9099 13.3758L95.9326 14.086C95.7519 14.1557 95.5153 14.1906 95.2228 14.1906C94.8614 14.1906 94.5794 14.078 94.376 13.8529C94.1726 13.6277 94.0704 13.2489 94.0704 12.7173V10.5935H93.4698V9.89218H94.0704V9.12023L94.9679 8.84326V9.89128H95.9745V10.5935H95.9753Z" fill="white"/>
<path fill-rule="evenodd" clip-rule="evenodd" d="M100.82 14.104H99.903V11.7095C99.903 10.9546 99.628 10.5766 99.0753 10.5766C98.6511 10.5766 98.3612 10.7955 98.2023 11.2333C98.1753 11.3254 98.1587 11.4379 98.1587 11.5702V14.1031H97.2446V7.95972H98.1587V10.498H98.177C98.4651 10.0361 98.8772 9.80559 99.4132 9.80559C99.7912 9.80559 100.106 9.93246 100.354 10.1871C100.663 10.5043 100.82 10.976 100.82 11.5996V14.104Z" fill="white"/>
<path fill-rule="evenodd" clip-rule="evenodd" d="M104.942 11.5567C104.949 11.2788 104.889 11.0394 104.765 10.8375C104.606 10.5775 104.365 10.447 104.037 10.447C103.739 10.447 103.495 10.5739 103.309 10.8285C103.157 11.0313 103.067 11.2735 103.038 11.5567H104.942ZM105.816 11.799C105.816 11.967 105.803 12.1082 105.782 12.2234H103.038C103.05 12.6398 103.181 12.9569 103.435 13.1767C103.667 13.3733 103.967 13.4716 104.333 13.4716C104.739 13.4716 105.109 13.4055 105.443 13.2723L105.586 13.9228C105.196 14.0961 104.737 14.1828 104.205 14.1828C103.568 14.1828 103.066 13.9907 102.702 13.6065C102.337 13.2223 102.157 12.7068 102.157 12.0599C102.157 11.4247 102.325 10.8957 102.665 10.474C103.019 10.0237 103.499 9.79858 104.104 9.79858C104.695 9.79858 105.145 10.0237 105.449 10.474C105.694 10.8314 105.816 11.2737 105.816 11.799Z" fill="white"/>
</svg>
